<svg width="104" height="130" viewBox="0 0 104 130" fill="none" xmlns="http://www.w3.org/2000/svg">
<g clip-path="url(#clip0)">
<path d="M13.9795 59.332C13.9795 59.332 -0.32052 61.932 0.00448045 71.9732C0.32948 82.0144 2.92948 85.5894 13.9795 86.2368C13.9795 86.2368 21.8731 105.869 27.5593 112.84C35.0993 122.086 40.8193 129.48 56.1593 130C56.1593 130 67.2301 129.457 77.2193 118.56C80.0793 115.44 88.3993 106.86 91.3243 86.5618C94.1843 66.6276 92.2993 51.5528 92.2993 51.5528C92.2993 51.5528 92.2993 38.2616 89.3743 35.0194C86.4493 31.7772 69.8743 3.57499 24.3743 24.9704C24.3769 24.96 10.7295 31.46 13.9795 59.332Z" fill="#FFDECC"/>
<path d="M36.4026 66.6249C38.1071 66.6249 39.4888 65.1012 39.4888 63.2215C39.4888 61.3419 38.1071 59.8181 36.4026 59.8181C34.6981 59.8181 33.3164 61.3419 33.3164 63.2215C33.3164 65.1012 34.6981 66.6249 36.4026 66.6249Z" fill="#292929"/>
<path d="M76.375 66.6249C78.0795 66.6249 79.4612 65.1012 79.4612 63.2215C79.4612 61.3419 78.0795 59.8181 76.375 59.8181C74.6706 59.8181 73.2888 61.3419 73.2888 63.2215C73.2888 65.1012 74.6706 66.6249 76.375 66.6249Z" fill="#292929"/>
<path d="M92.3183 59.8181C92.3183 59.8181 104.161 62.0879 103.836 72.1369C103.511 82.1859 99.3903 83.1583 91.3771 85.7505L92.3183 59.8181Z" fill="#FFD8C5"/>
<path d="M74.2638 93.431C74.2638 93.431 77.1888 93.574 77.1888 94.8714C77.1888 96.1688 74.3002 102.266 71.76 104.658C69.16 107.104 63.57 110.932 49.92 109.338C45.1308 108.781 40.04 105.713 40.04 105.713C36.5273 103.231 33.7578 99.8375 32.0294 95.8984L32.0112 95.8334C31.993 95.5734 32.0346 93.9744 35.9112 93.7092L74.2638 93.431Z" fill="#FFA4B8"/>
<path d="M39.26 93.6V98.8C39.26 98.8 39.91 101.041 42.835 101.288C45.76 101.535 68.1824 101.288 68.1824 101.288C68.1824 101.288 71.7574 101.028 72.7324 99.047C73.7074 97.0658 72.8 93.327 72.8 93.327L39.26 93.6Z" fill="white"/>
<path d="M9.38864 60.7152C9.38864 60.7152 4.06644 37.128 8.29144 26.754C12.5164 16.38 23.2414 6.65596 33.9638 3.09396C44.6862 -0.468039 68.4112 4.39396 71.3362 5.03876C73.8946 5.60556 84.9862 0.176761 87.9112 0.176761C90.8362 0.176761 96.6862 -0.470639 100.261 6.01116C103.836 12.493 99.9362 21.5722 99.9362 21.5722C99.9362 21.5722 96.6862 30.9738 87.5862 35.1884C78.4862 39.403 74.2638 41.34 59.9638 40.3676C45.6638 39.3952 25.8414 26.104 25.8414 26.104C25.8414 26.104 20.3164 24.4842 17.7164 34.8556C15.7144 42.8506 14.248 54.86 14.1414 59.1708C13.8164 59.4958 13.3614 59.5192 12.1914 59.8182L9.38864 60.7152Z" fill="#6CC9C6"/>
<path d="M95.6799 28.7794C95.6799 28.7794 101.561 41.34 92.1361 59.8182C92.1361 59.8182 92.5677 37.3724 88.9381 34.4942L95.6799 28.7794Z" fill="#54AFAA"/>
</g>
<defs>
<clipPath id="clip0">
<rect width="104" height="130" fill="white"/>
</clipPath>
</defs>
</svg>
