<svg width="104" height="130" viewBox="0 0 104 130" fill="none" xmlns="http://www.w3.org/2000/svg">
<g clip-path="url(#clip0)">
<path d="M13.9802 59.332C13.9802 59.332 -0.319787 61.932 0.00521287 71.9732C0.330213 82.0144 2.93021 85.5894 13.9802 86.2368C13.9802 86.2368 19.3414 109.091 25.0302 116.059C32.5702 125.304 40.7914 129.511 56.2302 129.997C56.2302 129.997 72.2358 129.217 79.3026 120.921C86.6138 112.341 90.0276 106.657 91.3276 86.5592C92.6276 66.4612 92.3 51.5528 92.3 51.5528C92.3 51.5528 92.3 38.2616 89.375 35.0194C86.45 31.7772 69.875 3.57498 24.375 24.9704C24.3776 24.96 10.7302 31.46 13.9802 59.332Z" fill="#FFDECC"/>
<path d="M36.4025 66.625C38.1069 66.625 39.4887 65.1013 39.4887 63.2216C39.4887 61.342 38.1069 59.8182 36.4025 59.8182C34.698 59.8182 33.3163 61.342 33.3163 63.2216C33.3163 65.1013 34.698 66.625 36.4025 66.625Z" fill="#292929"/>
<path d="M76.375 66.625C78.0795 66.625 79.4612 65.1013 79.4612 63.2216C79.4612 61.342 78.0795 59.8182 76.375 59.8182C74.6706 59.8182 73.2888 61.342 73.2888 63.2216C73.2888 65.1013 74.6706 66.625 76.375 66.625Z" fill="#292929"/>
<path d="M92.3183 59.8182C92.3183 59.8182 104.161 62.088 103.836 72.137C103.511 82.186 99.3903 83.1584 91.3771 85.7506L92.3183 59.8182Z" fill="#FFD8C5"/>
<path d="M74.2638 82.511C74.2638 82.511 77.1889 82.836 77.1889 85.7532C77.1889 88.6704 76.8041 102.411 74.2638 107.796C71.6638 113.308 66.4638 122.06 52.8164 118.492C48.0272 117.242 41.7664 109.416 41.7664 109.416C41.3166 108.636 34.8452 102.513 32.0294 88.0958L32.0112 87.9476C31.993 87.3652 32.0346 83.759 35.9112 83.1636L74.2638 82.511Z" fill="#FFA4B8"/>
<path d="M39.4913 83.0986V89.6428C39.4913 89.6428 40.1413 92.56 43.0663 92.885C45.9913 93.21 68.4137 92.885 68.4137 92.885C68.4137 92.885 71.9887 92.56 72.9637 89.96C73.9387 87.36 72.9637 82.5266 72.9637 82.5266L39.4913 83.0986Z" fill="white"/>
<path d="M9.38864 60.7152C9.38864 60.7152 4.06644 37.128 8.29144 26.754C12.5164 16.38 23.2414 6.65596 33.9638 3.09396C44.6862 -0.468039 68.4112 4.39396 71.3362 5.03876C73.8946 5.60556 84.9862 0.176761 87.9112 0.176761C90.8362 0.176761 96.6862 -0.470639 100.261 6.01116C103.836 12.493 99.9362 21.5722 99.9362 21.5722C99.9362 21.5722 96.6862 30.9738 87.5862 35.1884C78.4862 39.403 74.2638 41.34 59.9638 40.3676C45.6638 39.3952 25.8414 26.104 25.8414 26.104C25.8414 26.104 20.3164 24.4842 17.7164 34.8556C15.7144 42.8506 14.248 54.86 14.1414 59.1708C13.8164 59.4958 13.3614 59.5192 12.1914 59.8182L9.38864 60.7152Z" fill="#6CC9C6"/>
<path d="M95.68 28.7794C95.68 28.7794 101.561 41.34 92.1362 59.8182C92.1362 59.8182 92.5678 37.3724 88.9382 34.4942L95.68 28.7794Z" fill="#54AFAA"/>
</g>
<defs>
<clipPath id="clip0">
<rect width="104" height="130" fill="white"/>
</clipPath>
</defs>
</svg>
