<svg width="104" height="130" viewBox="0 0 104 130" fill="none" xmlns="http://www.w3.org/2000/svg">
<g clip-path="url(#clip0)">
<path d="M13.9795 59.332C13.9795 59.332 -0.32052 61.932 0.00448045 71.9732C0.32948 82.0144 2.92948 85.5894 13.9795 86.2368C13.9795 86.2368 20.0531 108.729 25.7393 115.7C33.2793 124.946 40.7907 129.514 56.2269 130C56.2269 130 72.2325 129.22 79.2993 120.923C86.6105 112.343 90.0243 106.66 91.3243 86.5618C92.6243 66.4638 92.2993 51.5528 92.2993 51.5528C92.2993 51.5528 92.2993 38.2616 89.3743 35.0194C86.4493 31.7772 69.8743 3.57499 24.3743 24.9704C24.3769 24.96 10.7295 31.46 13.9795 59.332Z" fill="#FFDECC"/>
<path d="M36.4028 66.6249C38.1073 66.6249 39.4891 65.1012 39.4891 63.2215C39.4891 61.3419 38.1073 59.8181 36.4028 59.8181C34.6984 59.8181 33.3167 61.3419 33.3167 63.2215C33.3167 65.1012 34.6984 66.6249 36.4028 66.6249Z" fill="#292929"/>
<path d="M76.375 66.6249C78.0795 66.6249 79.4612 65.1012 79.4612 63.2215C79.4612 61.3419 78.0795 59.8181 76.375 59.8181C74.6706 59.8181 73.2888 61.3419 73.2888 63.2215C73.2888 65.1012 74.6706 66.6249 76.375 66.6249Z" fill="#292929"/>
<path d="M92.3182 59.8181C92.3182 59.8181 104.161 62.0879 103.836 72.1369C103.511 82.1859 99.3902 83.1583 91.377 85.7505L92.3182 59.8181Z" fill="#FFD8C5"/>
<path d="M9.38852 60.7152C9.38852 60.7152 4.06632 37.128 8.29132 26.754C12.5163 16.38 23.2413 6.65596 33.9637 3.09396C44.6861 -0.468039 68.4111 4.39396 71.3361 5.03876C73.8945 5.60556 84.9861 0.176761 87.9111 0.176761C90.8361 0.176761 96.6861 -0.470639 100.261 6.01116C103.836 12.493 99.9361 21.5722 99.9361 21.5722C99.9361 21.5722 96.6861 30.9738 87.5861 35.1884C78.4861 39.403 74.2637 41.34 59.9637 40.3676C45.6637 39.3952 25.8413 26.104 25.8413 26.104C25.8413 26.104 20.3163 24.4842 17.7163 34.8556C15.7143 42.8506 14.2479 54.86 14.1413 59.1708C13.8163 59.4958 13.3613 59.5192 12.1913 59.8182L9.38852 60.7152Z" fill="#6CC9C6"/>
<path d="M95.68 28.7794C95.68 28.7794 101.561 41.34 92.1362 59.8182C92.1362 59.8182 92.5678 37.3724 88.9382 34.4942L95.68 28.7794Z" fill="#54AFAA"/>
<path d="M34.2783 92.5132C34.2783 92.5132 48.8903 85.5998 78.7851 92.5132" stroke="#EAC3B0" stroke-width="2" stroke-miterlimit="10"/>
<path d="M23.4 79.3C25.6975 79.3 27.56 77.4375 27.56 75.14C27.56 72.8425 25.6975 70.98 23.4 70.98C21.1025 70.98 19.24 72.8425 19.24 75.14C19.24 77.4375 21.1025 79.3 23.4 79.3Z" fill="#FFA4B8"/>
<path d="M88.14 79.3C90.4375 79.3 92.3 77.4375 92.3 75.14C92.3 72.8425 90.4375 70.98 88.14 70.98C85.8425 70.98 83.98 72.8425 83.98 75.14C83.98 77.4375 85.8425 79.3 88.14 79.3Z" fill="#FFA4B8"/>
<path d="M29.2293 81.0811C29.2293 81.0811 40.8513 91.7592 28.5923 103.493" stroke="#EAC3B0" stroke-miterlimit="10"/>
<path d="M83.7539 81.6011C83.7539 81.6011 72.1319 92.2793 84.3909 104.013" stroke="#EAC3B0" stroke-miterlimit="10"/>
</g>
<defs>
<clipPath id="clip0">
<rect width="104" height="130" fill="white"/>
</clipPath>
</defs>
</svg>
