<svg width="260" height="200" viewBox="0 0 260 200" fill="none" xmlns="http://www.w3.org/2000/svg">
<g clip-path="url(#clip0)">
<path d="M72.1094 3.15713V160.973C72.1094 162.529 71.7084 163.791 71.2097 163.791H51.4302C50.9349 163.791 50.5305 162.529 50.5305 160.973V3.15713C50.544 1.60061 50.945 0.339112 51.4437 0.339112H71.2232C71.7185 0.339112 72.1094 1.60061 72.1094 3.15713Z" fill="#D0D1D3"/>
<path d="M64.0223 149.063C64.5177 149.063 64.922 149.836 64.922 150.793C64.922 151.749 64.521 152.522 64.0223 152.522H50.5439V149.063H64.0223Z" fill="#6CC9C6"/>
<path d="M57.7347 142.152C58.23 142.152 58.6343 142.925 58.6343 143.882C58.6343 144.838 58.2334 145.611 57.7347 145.611H50.5439V142.152H57.7347Z" fill="#6CC9C6"/>
<path d="M64.0223 135.241C64.5177 135.241 64.922 136.014 64.922 136.971C64.922 137.927 64.5244 138.697 64.0223 138.697H50.5439V135.241H64.0223Z" fill="#6CC9C6"/>
<path d="M57.7347 128.33C58.23 128.33 58.6343 129.103 58.6343 130.059C58.6343 131.016 58.2334 131.789 57.7347 131.789H50.5439V128.33H57.7347Z" fill="#6CC9C6"/>
<path d="M64.0223 121.402C64.5177 121.402 64.922 122.175 64.922 123.131C64.922 124.088 64.521 124.861 64.0223 124.861H50.5439V121.402H64.0223Z" fill="#6CC9C6"/>
<path d="M57.7347 114.508C58.23 114.508 58.6343 115.281 58.6343 116.234C58.6343 117.187 58.2334 117.963 57.7347 117.963H50.5439V114.508H57.7347Z" fill="#6CC9C6"/>
<path d="M64.0223 107.593C64.5177 107.593 64.922 108.366 64.922 109.323C64.922 110.279 64.521 111.052 64.0223 111.052H50.5439V107.593H64.0223Z" fill="#6CC9C6"/>
<path d="M57.7347 100.686C58.23 100.686 58.6343 101.459 58.6343 102.415C58.6343 103.371 58.2334 104.141 57.7347 104.141H50.5439V100.686H57.7347Z" fill="#6CC9C6"/>
<path d="M64.0223 93.7711C64.5177 93.7711 64.922 94.5443 64.922 95.5006C64.922 96.4569 64.521 97.2301 64.0223 97.2301H50.5439V93.7711H64.0223Z" fill="#6CC9C6"/>
<path d="M57.7347 86.86C58.23 86.86 58.6343 87.6332 58.6343 88.5895C58.6343 89.5458 58.2334 90.319 57.7347 90.319H50.5439V86.86H57.7347Z" fill="#6CC9C6"/>
<path d="M64.0223 79.9489C64.5177 79.9489 64.922 80.7221 64.922 81.6784C64.922 82.6347 64.5244 83.4214 64.0223 83.4214H50.5439V79.9489H64.0223Z" fill="#6CC9C6"/>
<path d="M57.7347 73.0379C58.23 73.0379 58.6343 73.811 58.6343 74.7673C58.6343 75.7236 58.2334 76.4968 57.7347 76.4968H50.5439V73.0379H57.7347Z" fill="#6CC9C6"/>
<path d="M64.0223 66.1268C64.5177 66.1268 64.922 66.8999 64.922 67.8562C64.922 68.8125 64.521 69.5857 64.0223 69.5857H50.5439V66.1268H64.0223Z" fill="#6CC9C6"/>
<path d="M57.7347 59.7481C58.23 59.7481 58.6343 60.5212 58.6343 61.4775C58.6343 62.4338 58.2334 63.207 57.7347 63.207H50.5439V59.7481H57.7347Z" fill="#6CC9C6"/>
<path d="M64.0223 52.837C64.5177 52.837 64.922 53.6102 64.922 54.5664C64.922 55.5227 64.5244 56.2925 64.0223 56.2925H50.5439V52.837H64.0223Z" fill="#6CC9C6"/>
<path d="M57.7347 45.9259C58.23 45.9259 58.6343 46.6991 58.6343 47.6553C58.6343 48.6116 58.2334 49.3848 57.7347 49.3848H50.5439V45.9259H57.7347Z" fill="#6CC9C6"/>
<path d="M64.0223 38.9978C64.5177 38.9978 64.922 39.771 64.922 40.7273C64.922 41.6836 64.521 42.4568 64.0223 42.4568H50.5439V38.9978H64.0223Z" fill="#6CC9C6"/>
<path d="M57.7347 32.1037C58.23 32.1037 58.6343 32.8769 58.6343 33.8298C58.6343 34.7827 58.2334 35.5592 57.7347 35.5592H50.5439V32.1037H57.7347Z" fill="#6CC9C6"/>
<path d="M64.0223 25.1892C64.5177 25.1892 64.922 25.9624 64.922 26.9187C64.922 27.875 64.521 28.6481 64.0223 28.6481H50.5439V25.1892H64.0223Z" fill="#6CC9C6"/>
<path d="M31.0946 51.1007C31.0946 51.1007 35.2662 54.9361 36.0547 63.3325L36.5433 80.7425C36.5621 81.4171 36.3526 82.0782 35.9491 82.6173C35.5457 83.1565 34.9722 83.5416 34.3227 83.7097C33.8811 83.8259 33.4188 83.8377 32.9719 83.7442C32.525 83.6507 32.1057 83.4544 31.7468 83.1706C31.3878 82.8869 31.099 82.5234 30.9028 82.1087C30.7067 81.6939 30.6086 81.2391 30.6161 80.7798L31.0946 51.1007Z" fill="white"/>
<path d="M17.313 47.2247C17.313 47.2247 10.0144 45.6682 4.41077 51.0973L5.75861 89.0778H31.0946V51.0973C31.0946 51.0973 27.3341 45.5088 17.313 47.2247Z" fill="white"/>
<path d="M20.1333 51.7857C20.1333 51.7857 21.2486 75.4591 20.1333 89.088" stroke="#C7C7C7" stroke-width="0.75" stroke-miterlimit="10"/>
<path d="M30.9026 82.1023L30.6195 57.6252" stroke="#C7C7C7" stroke-width="0.75" stroke-miterlimit="10"/>
<path d="M4.41442 51.1007C4.41442 51.1007 -0.296274 53.9187 0.000250225 63.3325L0.899933 81.9836C0.953539 83.056 1.41472 84.0667 2.18805 84.8064C2.96139 85.5462 3.9877 85.9585 5.05465 85.958C6.15744 85.958 7.21506 85.5171 7.99485 84.7324C8.77465 83.9476 9.21273 82.8832 9.21273 81.7734V60.3619L4.41442 51.1007Z" fill="white"/>
<path d="M21.7339 66.198C21.7339 66.0352 24.3049 60.84 30.2354 61.82C30.8595 61.9282 31.4518 62.1748 31.9693 62.542C32.4869 62.9092 32.9167 63.3877 33.2276 63.9429L33.696 64.7703L30.6634 66.805C30.6634 66.805 25.6932 70.0639 22.9942 69.2771C20.2951 68.4904 21.7339 66.198 21.7339 66.198Z" fill="#FFDECC"/>
<path d="M21.5721 65.1535L5.77209 76.3035L6.32471 85.7647L25.4606 71.0269L21.5721 65.1535Z" fill="white"/>
<path d="M9.2293 58.4154V73.8619L21.5721 65.1535L25.4607 71.0269L6.32471 85.7647" stroke="#C7C7C7" stroke-width="0.75" stroke-miterlimit="10"/>
<path d="M32.4661 72.1392C32.4661 72.1392 28.2271 68.4598 30.6397 65.9402C33.0524 63.4206 35.8761 63.5054 36.5332 65.1535C37.1902 66.8016 36.2333 70.2571 36.2333 70.2571L32.4661 72.1392Z" fill="#FFDECC"/>
<path d="M31.4451 71.9764L37.3048 69.077L38.0933 80.1185C38.1626 80.5932 38.1354 81.0772 38.0131 81.541C37.8908 82.0048 37.6762 82.4388 37.3821 82.8165C37.0881 83.1942 36.7209 83.5079 36.3027 83.7384C35.8845 83.9689 35.4241 84.1114 34.9495 84.1573C34.4609 84.2051 33.9677 84.1495 33.5018 83.9939C33.0358 83.8384 32.6073 83.5865 32.2439 83.2543C31.8805 82.9221 31.5902 82.517 31.3917 82.0652C31.1932 81.6133 31.0909 81.1246 31.0913 80.6306L31.4451 71.9764Z" fill="white"/>
<path d="M13.4346 48.1132L12.5114 40.7612L20.1165 39.8219L21.0398 47.1738C21.1635 48.1888 20.8816 49.2116 20.256 50.0174C19.6304 50.8231 18.7124 51.3458 17.7039 51.4704C16.6954 51.5949 15.679 51.3112 14.8784 50.6816C14.0778 50.052 13.5584 49.1281 13.4346 48.1132Z" fill="#FFDECC"/>
<path d="M12.0059 38.9334C12.0059 38.9334 13.9602 47.9707 20.9387 46.5464L20.3726 41.9685L12.0059 38.9334Z" fill="#FFDECC"/>
<path d="M12.8954 47.4248L18.8158 50.9515L21.1374 46.9602L22.0506 47.1874L19.4526 51.5687L15.1294 51.9282L13.2256 49.6459L12.8954 47.4248Z" fill="white"/>
<path d="M10.4357 47.8622L16.1572 55.421L19.2101 51.7213L23.0818 53.7356L22.9672 46.7974" stroke="#C7C7C7" stroke-width="0.75" stroke-miterlimit="10"/>
<path d="M25.545 36.6545C26.8386 36.2689 27.5767 34.9009 27.1935 33.599C26.8103 32.2971 25.4509 31.5543 24.1573 31.9399C22.8636 32.3256 22.1256 33.6936 22.5088 34.9955C22.892 36.2974 24.2513 37.0402 25.545 36.6545Z" fill="#FFD8C5"/>
<path d="M23.8331 26.5965C23.8331 26.5965 28.0957 29.7197 23.8028 33.3414L22.6605 33.199C22.6605 33.199 19.3718 29.4688 20.8814 26.332L23.8331 26.5965Z" fill="#171E21"/>
<path d="M21.188 44.3897L20.9286 44.4677C20.0166 44.7395 19.0603 44.8279 18.1144 44.7277C17.1685 44.6275 16.2514 44.3407 15.4156 43.8838C14.5798 43.4269 13.8417 42.8087 13.2433 42.0646C12.645 41.3205 12.1982 40.4651 11.9284 39.5472L9.60673 31.6561C9.4656 31.1767 9.51944 30.6605 9.7564 30.2211C9.99336 29.7817 10.394 29.455 10.8703 29.3128L20.0087 26.5999C20.8603 26.3464 21.7772 26.4437 22.5576 26.8705C23.338 27.2972 23.918 28.0183 24.1701 28.8754L26.074 35.3422C26.6165 37.194 26.4067 39.1868 25.4907 40.8831C24.5746 42.5794 23.0272 43.8405 21.188 44.3897Z" fill="#FFDECC"/>
<path d="M18.9154 36.2893C19.2338 36.2208 19.4369 35.9055 19.3688 35.585C19.3008 35.2645 18.9874 35.0601 18.669 35.1286C18.3505 35.1971 18.1474 35.5124 18.2155 35.833C18.2835 36.1535 18.5969 36.3578 18.9154 36.2893Z" fill="#171E21"/>
<path d="M23.7557 34.8327C24.0742 34.7642 24.2772 34.4489 24.2092 34.1283C24.1411 33.8078 23.8278 33.6035 23.5093 33.672C23.1908 33.7405 22.9878 34.0558 23.0558 34.3763C23.1239 34.6968 23.4372 34.9012 23.7557 34.8327Z" fill="#171E21"/>
<path d="M20.0087 39.9711C20.0087 39.9711 22.7886 40.7171 24.1196 38.7198" stroke="#E19580" stroke-width="0.6" stroke-linecap="round" stroke-linejoin="round"/>
<path d="M11.9048 38.3366C11.9048 38.3366 15.8843 36.8377 13.074 29.6485L8.23193 28.8516L8.54194 29.9266L11.9048 38.3366Z" fill="#171E21"/>
<path d="M11.5982 37.5736L10.1527 37.9805C10.1527 37.9805 8.80483 33.3957 7.82427 32.3852C6.61796 31.1644 5.41164 26.1116 9.20581 25.8301C10.3633 25.7671 11.4732 25.3455 12.3833 24.6229C12.6282 24.4181 12.8538 24.1911 13.0573 23.9447C14.3781 22.3373 14.5736 19.6108 18.5329 19.4277C22.9706 19.2242 27.4926 23.8362 25.1642 27.6512C23.7288 29.9944 14.5837 31.8256 12.8483 31.0185L11.8038 34.3486L11.5982 37.5736Z" fill="#171E21"/>
<path d="M11.5964 40.5156C12.8901 40.1301 13.6284 38.7622 13.2454 37.4603C12.8625 36.1583 11.5033 35.4153 10.2095 35.8007C8.91583 36.1861 8.17752 37.554 8.56049 38.856C8.94346 40.158 10.3027 40.901 11.5964 40.5156Z" fill="#FFDECC"/>
<path d="M5.77209 89.088L7.42657 156.032H15.8472L18.5361 100.998H20.3793L19.5942 155.866H28.2608L31.0946 89.088H5.77209Z" fill="#292929"/>
<path d="M28.0451 155.866L31.8662 158.853L35.3032 159.552C36.0718 159.709 36.7694 160.111 37.2917 160.7C37.814 161.289 38.133 162.031 38.2011 162.818L38.2651 163.574L19.2067 163.543L19.7424 155.873L28.0451 155.866Z" fill="#333E42"/>
<path d="M19.1191 163.669L38.3258 163.699V162.475C38.3258 162.359 38.28 162.248 38.1985 162.166C38.1169 162.084 38.0064 162.038 37.8911 162.038L19.1056 162.007V163.669" fill="black"/>
<path d="M8.26901 156.032C8.26901 156.032 5.39137 160.203 5.59355 162.852H16.5953C16.5953 162.852 17.4242 160.712 14.1793 156.029L8.26901 156.032Z" fill="#263237"/>
<path d="M5.08137 163.669L17.2119 163.686V162.462C17.2119 162.221 17.0906 162.024 16.939 162.024L5.51942 162.007C5.46161 162.007 5.40429 162.018 5.35075 162.04C5.29722 162.062 5.24853 162.094 5.20749 162.135C5.16646 162.176 5.13389 162.225 5.11167 162.279C5.08944 162.332 5.078 162.39 5.078 162.448V163.669" fill="black"/>
</g>
<g clip-path="url(#clip1)">
<path d="M183.88 180.274H172.604V197.182H183.88V180.274Z" fill="#D0D1D3"/>
<path d="M175.318 39.3662L169.89 182.987C169.876 183.365 169.938 183.743 170.073 184.097C170.208 184.451 170.414 184.774 170.676 185.047C170.939 185.319 171.254 185.536 171.603 185.685C171.952 185.833 172.327 185.91 172.706 185.91H183.765C184.144 185.91 184.519 185.833 184.868 185.685C185.216 185.536 185.532 185.319 185.794 185.047C186.057 184.774 186.262 184.451 186.397 184.097C186.533 183.743 186.595 183.365 186.581 182.987L181.153 39.3662C181.125 38.612 180.806 37.8977 180.264 37.3725C179.722 36.8474 178.997 36.5521 178.242 36.5482V36.5482C177.485 36.5486 176.757 36.8424 176.212 37.3678C175.666 37.8933 175.346 38.6096 175.318 39.3662Z" fill="white"/>
<path d="M179.599 37.2264L182.652 186.096H184.349C185.193 186.096 186.754 184.981 186.723 183.384L181.146 40.0445C181.112 38.471 180.43 37.2264 179.599 37.2264Z" fill="#D0D1D3"/>
<path d="M231.229 67.4888L124.099 44.9412C123.73 44.8723 123.378 44.7303 123.064 44.5235C122.751 44.3168 122.482 44.0496 122.273 43.7375C122.064 43.4254 121.92 43.0748 121.849 42.7062C121.778 42.3376 121.781 41.9585 121.858 41.5912C121.935 41.2238 122.085 40.8755 122.299 40.5669C122.513 40.2583 122.786 39.9954 123.103 39.7939C123.42 39.5923 123.774 39.456 124.144 39.3931C124.514 39.3301 124.893 39.3417 125.259 39.4273L232.389 61.9816C232.758 62.0506 233.11 62.1926 233.423 62.3993C233.737 62.606 234.006 62.8732 234.215 63.1853C234.423 63.4974 234.568 63.848 234.639 64.2166C234.71 64.5852 234.707 64.9643 234.63 65.3317C234.552 65.699 234.403 66.0473 234.189 66.3559C233.975 66.6646 233.702 66.9274 233.385 67.129C233.068 67.3305 232.714 67.4668 232.344 67.5298C231.973 67.5927 231.594 67.5811 231.229 67.4955V67.4888Z" fill="#D0D1D3"/>
<path d="M144.413 197.182V194.364C144.413 193.994 144.486 193.627 144.627 193.286C144.769 192.944 144.977 192.633 145.238 192.371C145.5 192.11 145.811 191.902 146.153 191.76C146.495 191.619 146.862 191.546 147.232 191.546H209.252C210 191.546 210.717 191.843 211.246 192.371C211.775 192.9 212.072 193.617 212.072 194.364V197.182C212.072 197.929 211.775 198.646 211.246 199.175C210.717 199.703 210 200 209.252 200H147.232C146.862 200 146.495 199.927 146.153 199.785C145.811 199.644 145.5 199.436 145.238 199.175C144.977 198.913 144.769 198.602 144.627 198.26C144.486 197.918 144.413 197.552 144.413 197.182Z" fill="#6CC9C6"/>
<path d="M204.025 200H211.179C211.675 200 212.075 198.739 212.075 197.182V194.364C212.075 192.807 211.675 191.546 211.179 191.546H204.025C204.52 191.546 204.92 192.807 204.92 194.364V197.182C204.92 198.739 204.52 200 204.025 200Z" fill="#54AFAA"/>
<path d="M178.246 61.9104C182.916 61.9104 186.703 58.1254 186.703 53.4563C186.703 48.7873 182.916 45.0023 178.246 45.0023C173.575 45.0023 169.788 48.7873 169.788 53.4563C169.788 58.1254 173.575 61.9104 178.246 61.9104Z" fill="#7ACECA"/>
<path d="M178.246 56.2743C179.803 56.2743 181.065 55.0127 181.065 53.4563C181.065 51.9 179.803 50.6383 178.246 50.6383C176.689 50.6383 175.427 51.9 175.427 53.4563C175.427 55.0127 176.689 56.2743 178.246 56.2743Z" fill="#54AFAA"/>
<path d="M205.673 157.611C204.954 157.408 204.345 156.928 203.979 156.276C203.613 155.625 203.521 154.855 203.723 154.135L229.092 63.9688C229.258 63.3772 229.613 62.8563 230.103 62.4852C230.593 62.1141 231.191 61.9133 231.805 61.9133C232.42 61.9133 233.018 62.1141 233.508 62.4852C233.998 62.8563 234.353 63.3772 234.519 63.9688L259.891 154.149C260.094 154.868 260.002 155.639 259.636 156.29C259.27 156.942 258.661 157.422 257.941 157.625C257.221 157.827 256.45 157.735 255.798 157.37C255.146 157.004 254.666 156.394 254.464 155.675L231.809 75.1391L209.151 155.671C209.05 156.027 208.88 156.359 208.65 156.649C208.421 156.939 208.137 157.181 207.814 157.361C207.491 157.541 207.136 157.656 206.769 157.699C206.401 157.742 206.029 157.712 205.673 157.611Z" fill="white"/>
<path d="M203.614 154.898C203.614 154.151 203.911 153.434 204.44 152.906C204.969 152.377 205.686 152.08 206.433 152.08H257.181C257.929 152.08 258.646 152.377 259.174 152.906C259.703 153.434 260 154.151 260 154.898C260 155.646 259.703 156.362 259.174 156.891C258.646 157.419 257.929 157.716 257.181 157.716H206.433C205.686 157.716 204.969 157.419 204.44 156.891C203.911 156.362 203.614 155.646 203.614 154.898Z" fill="#6CC9C6"/>
<path d="M237.447 157.73H257.181C257.929 157.73 258.646 157.433 259.174 156.904C259.703 156.376 260 155.659 260 154.912C260 154.164 259.703 153.448 259.174 152.919C258.646 152.391 257.929 152.094 257.181 152.094H237.447C238.195 152.094 238.912 152.391 239.44 152.919C239.969 153.448 240.266 154.164 240.266 154.912C240.266 155.659 239.969 156.376 239.44 156.904C238.912 157.433 238.195 157.73 237.447 157.73Z" fill="#54AFAA"/>
<path d="M210.515 165.885L206.444 157.73H257.181L253.11 165.885C252.642 166.822 251.922 167.61 251.031 168.16C250.14 168.711 249.113 169.002 248.065 169.002H215.559C214.512 169.002 213.485 168.711 212.594 168.16C211.703 167.61 210.983 166.822 210.515 165.885Z" fill="#7ACECA"/>
<path d="M228.321 169.002H248.059C249.106 169.002 250.133 168.711 251.024 168.16C251.915 167.61 252.635 166.822 253.103 165.885L257.174 157.73H237.447L233.376 165.885C232.907 166.823 232.185 167.612 231.292 168.162C230.399 168.713 229.371 169.004 228.321 169.002Z" fill="#6CC9C6"/>
<path d="M98.5436 135.08C97.8236 134.878 97.2135 134.398 96.8471 133.747C96.4808 133.095 96.3881 132.325 96.5895 131.605L121.962 41.4246C122.128 40.8331 122.483 40.3121 122.973 39.9411C123.463 39.57 124.061 39.3691 124.676 39.3691C125.29 39.3691 125.888 39.57 126.378 39.9411C126.868 40.3121 127.223 40.8331 127.389 41.4246L152.765 131.601C152.865 131.957 152.894 132.33 152.85 132.697C152.807 133.065 152.691 133.42 152.51 133.743C152.329 134.066 152.086 134.35 151.795 134.579C151.504 134.807 151.171 134.977 150.814 135.077C150.458 135.177 150.085 135.206 149.718 135.163C149.35 135.119 148.995 135.003 148.672 134.822C148.349 134.641 148.065 134.398 147.836 134.107C147.607 133.816 147.437 133.483 147.337 133.127L124.679 52.595L102.017 133.127C101.918 133.484 101.748 133.817 101.52 134.108C101.291 134.399 101.007 134.642 100.684 134.823C100.361 135.004 100.005 135.12 99.6371 135.164C99.2693 135.207 98.8966 135.178 98.5402 135.077L98.5436 135.08Z" fill="white"/>
<path d="M96.4844 132.364C96.4844 131.617 96.7814 130.9 97.3101 130.372C97.8388 129.843 98.5558 129.546 99.3035 129.546H150.051C150.799 129.546 151.516 129.843 152.044 130.372C152.573 130.9 152.87 131.617 152.87 132.364C152.87 133.112 152.573 133.828 152.044 134.357C151.516 134.885 150.799 135.182 150.051 135.182H99.3035C98.5558 135.182 97.8388 134.885 97.3101 134.357C96.7814 133.828 96.4844 133.112 96.4844 132.364Z" fill="#6CC9C6"/>
<path d="M130.317 135.182H150.051C150.799 135.182 151.516 134.885 152.044 134.357C152.573 133.828 152.87 133.112 152.87 132.364C152.87 131.617 152.573 130.9 152.044 130.372C151.516 129.843 150.799 129.546 150.051 129.546H130.317C131.065 129.546 131.782 129.843 132.311 130.372C132.839 130.9 133.136 131.617 133.136 132.364C133.136 133.112 132.839 133.828 132.311 134.357C131.782 134.885 131.065 135.182 130.317 135.182Z" fill="#54AFAA"/>
<path d="M103.385 143.341L99.3137 135.186H150.051L145.98 143.341C145.511 144.279 144.789 145.067 143.896 145.617C143.003 146.167 141.974 146.457 140.925 146.454H108.429C107.382 146.455 106.356 146.164 105.465 145.614C104.574 145.064 103.853 144.277 103.385 143.341Z" fill="#7ACECA"/>
<path d="M121.192 146.458H140.925C141.973 146.458 143 146.166 143.891 145.616C144.782 145.066 145.502 144.278 145.97 143.341L150.041 135.186H130.317L126.246 143.341C125.777 144.279 125.056 145.068 124.163 145.619C123.27 146.169 122.241 146.46 121.192 146.458Z" fill="#6CC9C6"/>
<path d="M223.273 119.539L217.547 136.227L218.918 139.492L226.727 137.983L228.871 120.132L223.273 119.539Z" fill="#FFD8C5"/>
<path d="M226.754 111.404C226.754 111.404 222.181 114.015 221.204 122.567L227.263 126.145L226.754 111.404Z" fill="#54AFAA"/>
<path d="M234.557 108.101L226.754 111.404L220.692 138.872L240.443 142.758L249.823 115.561C249.823 115.561 250.423 109.047 240.086 107.423L234.557 108.101Z" fill="#6CC9C6"/>
<path d="M249.975 138.163C249.999 137.824 250.033 135.745 249.996 135.416L249.453 114.771C249.232 111.963 246.871 110.841 244.741 112.53C243.949 113.2 243.342 114.063 242.98 115.035C242.617 116.007 242.511 117.056 242.671 118.081L243.977 135.715L249.975 138.163Z" fill="#FFDECC"/>
<path d="M246.312 134.348L227.47 134.08L226.357 137.19L244.269 141.758C247.024 142.46 249.992 140.286 249.931 137.617C249.884 135.765 248.347 134.375 246.312 134.348Z" fill="#FFDECC"/>
<path d="M249.823 114.883C249.823 114.883 250.233 117.125 251.519 124.717L243.377 125.735C243.377 125.735 236.473 116.487 243.716 111.39L249.823 114.883Z" fill="#6CC9C6"/>
<path d="M193.043 181.288L187.398 183.662L183.826 183.936C183.027 183.997 182.269 184.316 181.665 184.844C181.062 185.373 180.647 186.082 180.481 186.866L180.322 187.619L199.716 189.962L200.076 182.163L193.043 181.288Z" fill="#333E42"/>
<path d="M199.777 190.084L180.234 187.711L180.39 186.429C180.403 186.326 180.457 186.233 180.539 186.169C180.621 186.106 180.724 186.077 180.827 186.09L199.981 188.402L199.777 190.074" fill="black"/>
<path d="M200.076 182.156L201.935 173.665L194.913 172.739L193.043 181.288L200.076 182.156Z" fill="#FFDECC"/>
<path d="M240.432 142.761C240.432 142.761 240.829 151.609 232.403 152.287L212.139 152.365L202.668 179.033L192.616 177.456L202.522 138.316L228.199 137.38L240.432 142.761Z" fill="#292929"/>
<path d="M204.606 175.443L192.455 173.223L191.603 177.886L203.753 180.107L204.606 175.443Z" fill="#292929"/>
<path d="M193.596 173.427L203.906 175.309" stroke="#0C0C11" stroke-width="0.74" stroke-miterlimit="10"/>
<path d="M176.746 166.052L170.691 165.18L167.485 163.583C166.766 163.228 165.953 163.115 165.165 163.258C164.377 163.402 163.656 163.795 163.108 164.38L162.586 164.943L178.018 176.903L182.337 170.402L176.746 166.052Z" fill="#333E42"/>
<path d="M177.998 177.052L162.444 164.997L163.237 163.98C163.269 163.939 163.308 163.904 163.353 163.878C163.398 163.852 163.448 163.836 163.499 163.829C163.551 163.823 163.603 163.826 163.653 163.84C163.703 163.853 163.749 163.877 163.79 163.908L179.033 175.72L178.015 177.052" fill="black"/>
<path d="M182.333 170.406L187.585 163.685L182.038 159.29L176.746 166.052L182.333 170.406Z" fill="#FFDECC"/>
<path d="M220.682 138.875L205.042 134.273C204.384 134.08 203.736 133.85 203.095 133.595C201.738 133.09 198.346 132.374 195.72 136.427C192.355 141.612 178.894 161.151 178.894 161.151L187.168 167.201L205.107 144.189C205.853 143.163 206.83 142.326 207.959 141.746C209.088 141.166 210.338 140.86 211.607 140.852L225.546 140.761L220.682 138.875Z" fill="#292929"/>
<path d="M189.385 166.109L179.539 158.66L176.677 162.44L186.523 169.889L189.385 166.109Z" fill="#292929"/>
<path d="M180.172 159.13L188.47 165.407" stroke="#0C0C11" stroke-width="0.74" stroke-miterlimit="10"/>
<path d="M199.445 152.009L205.097 144.27C205.857 143.23 206.851 142.383 207.999 141.798C209.147 141.212 210.417 140.905 211.705 140.9L220.688 140.866" stroke="#0C0C11" stroke-width="0.74" stroke-miterlimit="10"/>
<path d="M220.648 138.244C221.499 140.499 225.77 140.584 228.03 139.733C230.289 138.882 232.609 137.566 231.761 135.325C230.913 133.083 227.124 131.744 224.668 132.31C221.665 132.988 219.796 135.989 220.648 138.244Z" fill="#FFDECC"/>
<path d="M227.843 100.366C229.257 100.325 230.37 99.1458 230.329 97.7324C230.288 96.319 229.108 95.2064 227.694 95.2474C226.281 95.2883 225.167 96.4673 225.208 97.8808C225.249 99.2942 226.429 100.407 227.843 100.366Z" fill="#FFD8C5"/>
<path d="M226.415 94.9195C227.388 100.345 231.164 104.777 236.694 104.615C239.344 104.538 241.854 103.412 243.674 101.485C245.493 99.5573 246.472 96.9866 246.395 94.3379C246.318 91.6892 245.191 89.1796 243.263 87.3611C241.335 85.5426 238.764 84.5641 236.114 84.641C230.584 84.8038 225.326 88.9376 226.415 94.9195Z" fill="#292929"/>
<path d="M240.483 108.46L240.144 98.2224L232.803 98.47L233.142 108.708C233.175 109.68 233.592 110.6 234.303 111.265C235.013 111.93 235.959 112.286 236.931 112.255C237.414 112.239 237.889 112.128 238.328 111.929C238.768 111.73 239.164 111.446 239.494 111.093C239.824 110.741 240.081 110.327 240.251 109.875C240.421 109.423 240.5 108.943 240.483 108.46Z" fill="#FFDECC"/>
<path d="M240.426 98.765C240.426 98.765 239.907 107.558 233.118 107.612L232.979 103.221L240.426 98.765Z" fill="#FFDECC"/>
<path d="M239.513 108.44C239.513 108.44 240.711 108.545 244.049 109.545C242.552 111.183 240.579 112.31 238.407 112.767C236.891 113.106 235.408 112.662 233.963 112.089C232.981 111.612 232.102 110.945 231.378 110.129C231.378 110.129 233.43 108.932 234.703 108.738C235.975 108.545 239.513 108.44 239.513 108.44Z" fill="#FFDECC"/>
<path d="M234.357 106.066C230.425 106.181 227.137 103.903 227.022 99.9621L226.825 93.2002C226.741 90.2974 229.821 87.1504 231.534 87.0962L237.895 88.6798C238.72 88.6588 239.519 88.9647 240.119 89.5308C240.719 90.0968 241.071 90.8771 241.097 91.7013L241.294 98.4361C241.409 102.383 237.674 105.971 234.357 106.066Z" fill="#FFDECC"/>
<path d="M234.248 97.2281C234.559 97.1967 234.786 96.919 234.755 96.6078C234.723 96.2966 234.445 96.0698 234.134 96.1012C233.823 96.1325 233.596 96.4103 233.627 96.7214C233.659 97.0326 233.936 97.2595 234.248 97.2281Z" fill="#171E21"/>
<path d="M229.064 97.3274C229.375 97.296 229.602 97.0183 229.571 96.7071C229.539 96.3959 229.261 96.1691 228.95 96.2005C228.639 96.2319 228.412 96.5096 228.443 96.8208C228.475 97.132 228.753 97.3588 229.064 97.3274Z" fill="#171E21"/>
<path d="M233.2 101.597C232.871 101.945 232.436 102.173 231.962 102.246C231.489 102.318 231.005 102.231 230.588 101.997" stroke="#DD6666" stroke-width="0.55" stroke-linecap="round" stroke-linejoin="round"/>
<path d="M238.522 88.3204C238.522 88.3204 236.114 95.4417 240.388 97.4425L244.225 90.901L238.522 88.3204Z" fill="#292929"/>
<path d="M241.924 99.9582C243.338 99.9172 244.451 98.7382 244.41 97.3248C244.369 95.9114 243.19 94.7988 241.776 94.8398C240.362 94.8807 239.249 96.0597 239.29 97.4732C239.331 98.8866 240.51 99.9992 241.924 99.9582Z" fill="#FFDECC"/>
<path d="M249.224 86.5528C250.6 83.6564 249.827 80.4123 247.498 79.307C245.169 78.2016 242.166 79.6535 240.79 82.5499C239.414 85.4463 240.187 88.6904 242.516 89.7958C244.845 90.9011 247.848 89.4492 249.224 86.5528Z" fill="#292929"/>
<path d="M240.968 89.4293C240.968 89.4293 231.005 95.4282 224.559 91.0367C224.246 90.8359 223.977 90.5743 223.767 90.2672C223.557 89.9602 223.411 89.6141 223.338 89.2496C223.182 88.3272 223.541 87.2149 226.177 87.2658C230.693 87.3302 233.81 88.1305 235.87 86.9843C237.929 85.8381 240.968 89.4293 240.968 89.4293Z" fill="#292929"/>
<path d="M233.814 87.3505C233.814 87.3505 229.59 84.1358 227.433 85.7194C225.275 87.3031 230.286 88.9138 230.286 88.9138L233.814 87.3505Z" fill="#292929"/>
<path d="M243.377 111.831L246.43 111.153L248.805 112.17L249.829 115.456L243.377 111.831Z" fill="#6CC9C6"/>
</g>
<defs>
<clipPath id="clip0">
<rect width="72.1094" height="163.452" fill="white"/>
</clipPath>
<clipPath id="clip1">
<rect width="163.516" height="163.452" fill="white" transform="translate(96.4844 36.5482)"/>
</clipPath>
</defs>
</svg>
