<svg width="104" height="130" viewBox="0 0 104 130" fill="none" xmlns="http://www.w3.org/2000/svg">
<g clip-path="url(#clip0)">
<path d="M13.9795 59.332C13.9795 59.332 -0.32052 61.932 0.00448045 71.9732C0.32948 82.0144 2.92948 85.5894 13.9795 86.2368C13.9795 86.2368 20.0531 108.729 25.7393 115.7C33.2793 124.946 40.7907 129.514 56.2269 130C56.2269 130 72.2325 129.22 79.2993 120.923C86.6105 112.343 90.0243 106.66 91.3243 86.5618C92.6243 66.4638 92.2993 51.5528 92.2993 51.5528C92.2993 51.5528 92.2993 38.2616 89.3743 35.0194C86.4493 31.7772 69.8743 3.57499 24.3743 24.9704C24.3769 24.96 10.7295 31.46 13.9795 59.332Z" fill="#FFDECC"/>
<path d="M36.4028 66.6249C38.1073 66.6249 39.4891 65.1012 39.4891 63.2215C39.4891 61.3419 38.1073 59.8181 36.4028 59.8181C34.6984 59.8181 33.3167 61.3419 33.3167 63.2215C33.3167 65.1012 34.6984 66.6249 36.4028 66.6249Z" fill="#292929"/>
<path d="M76.375 66.6249C78.0795 66.6249 79.4612 65.1012 79.4612 63.2215C79.4612 61.3419 78.0795 59.8181 76.375 59.8181C74.6706 59.8181 73.2888 61.3419 73.2888 63.2215C73.2888 65.1012 74.6706 66.6249 76.375 66.6249Z" fill="#292929"/>
<path d="M92.3182 59.8181C92.3182 59.8181 104.161 62.0879 103.836 72.1369C103.511 82.1859 99.3902 83.1583 91.377 85.7505L92.3182 59.8181Z" fill="#FFD8C5"/>
<path d="M75.8238 90.8311C75.8238 90.8311 78.7488 90.9715 78.7488 92.2429C78.7488 93.5143 74.88 109.46 51.22 106.6C41.2906 105.399 36.4 99.5411 33.5894 93.2595L33.5712 93.1945C33.553 92.9345 33.5946 91.3745 37.4712 91.1145L75.8238 90.8311Z" fill="#FFA4B8"/>
<path d="M40.5601 91.0468L40.5315 96.2624C40.5315 96.2624 41.1815 98.449 44.1065 98.6908C47.0315 98.9326 69.4539 98.6908 69.4539 98.6908C69.4539 98.6908 73.0289 98.449 74.0039 96.5042C74.9789 94.5594 74.1001 90.74 74.1001 90.74L40.5601 91.0468Z" fill="white"/>
<path d="M9.38852 60.7152C9.38852 60.7152 4.06632 37.128 8.29132 26.754C12.5163 16.38 23.2413 6.65596 33.9637 3.09396C44.6861 -0.468039 68.4111 4.39396 71.3361 5.03876C73.8945 5.60556 84.9861 0.176761 87.9111 0.176761C90.8361 0.176761 96.6861 -0.470639 100.261 6.01116C103.836 12.493 99.9361 21.5722 99.9361 21.5722C99.9361 21.5722 96.6861 30.9738 87.5861 35.1884C78.4861 39.403 74.2637 41.34 59.9637 40.3676C45.6637 39.3952 25.8413 26.104 25.8413 26.104C25.8413 26.104 20.3163 24.4842 17.7163 34.8556C15.7143 42.8506 14.2479 54.86 14.1413 59.1708C13.8163 59.4958 13.3613 59.5192 12.1913 59.8182L9.38852 60.7152Z" fill="#6CC9C6"/>
<path d="M95.68 28.7794C95.68 28.7794 101.561 41.34 92.1362 59.8182C92.1362 59.8182 92.5678 37.3724 88.9382 34.4942L95.68 28.7794Z" fill="#54AFAA"/>
<path d="M30.4644 96.3846C30.4644 96.3846 35.4537 96.2728 34.5801 87.1" stroke="#EAC3B0" stroke-miterlimit="10"/>
<path d="M82.9817 94.7205C82.9817 94.7205 78.1015 95.7605 76.8223 86.6423" stroke="#EAC3B0" stroke-miterlimit="10"/>
</g>
<defs>
<clipPath id="clip0">
<rect width="104" height="130" fill="white"/>
</clipPath>
</defs>
</svg>
