<svg width="104" height="130" viewBox="0 0 104 130" fill="none" xmlns="http://www.w3.org/2000/svg">
<g clip-path="url(#clip0)">
<path d="M13.9795 59.592C13.9795 59.592 -0.32052 62.192 0.00448045 72.2332C0.32948 82.2744 2.92948 85.8494 13.9795 86.4968C13.9795 86.4968 20.0531 108.989 25.7393 115.96C33.2793 125.206 40.7907 129.774 56.2269 130.26C56.2269 130.26 72.2325 129.48 79.2993 121.183C86.6105 112.603 90.0243 106.92 91.3243 86.8218C92.6243 66.7238 92.2993 51.8128 92.2993 51.8128C92.2993 51.8128 92.2993 38.5216 89.3743 35.2794C86.4493 32.0372 69.8743 3.835 24.3743 25.2304C24.3769 25.22 10.7295 31.72 13.9795 59.592Z" fill="#FFDECC"/>
<path d="M36.4028 66.8849C38.1073 66.8849 39.4891 65.3612 39.4891 63.4815C39.4891 61.6019 38.1073 60.0781 36.4028 60.0781C34.6984 60.0781 33.3167 61.6019 33.3167 63.4815C33.3167 65.3612 34.6984 66.8849 36.4028 66.8849Z" fill="#292929"/>
<path d="M76.375 66.8849C78.0795 66.8849 79.4612 65.3612 79.4612 63.4815C79.4612 61.6019 78.0795 60.0781 76.375 60.0781C74.6706 60.0781 73.2888 61.6019 73.2888 63.4815C73.2888 65.3612 74.6706 66.8849 76.375 66.8849Z" fill="#292929"/>
<path d="M92.3182 60.0781C92.3182 60.0781 104.161 62.3479 103.836 72.3969C103.511 82.4459 99.3902 83.4183 91.377 86.0105L92.3182 60.0781Z" fill="#FFD8C5"/>
<path d="M9.38852 60.9752C9.38852 60.9752 4.06632 37.388 8.29132 27.014C12.5163 16.64 23.2413 6.91597 33.9637 3.35397C44.6861 -0.20803 68.4111 4.65397 71.3361 5.29877C73.8945 5.86557 84.9861 0.436771 87.9111 0.436771C90.8361 0.436771 96.6861 -0.210629 100.261 6.27117C103.836 12.753 99.9361 21.8322 99.9361 21.8322C99.9361 21.8322 96.6861 31.2338 87.5861 35.4484C78.4861 39.663 74.2637 41.6 59.9637 40.6276C45.6637 39.6552 25.8413 26.364 25.8413 26.364C25.8413 26.364 20.3163 24.7442 17.7163 35.1156C15.7143 43.1106 14.2479 55.12 14.1413 59.4308C13.8163 59.7558 13.3613 59.7792 12.1913 60.0782L9.38852 60.9752Z" fill="#6CC9C6"/>
<path d="M95.68 29.0394C95.68 29.0394 101.561 41.6 92.1362 60.0782C92.1362 60.0782 92.5678 37.6324 88.9382 34.7542L95.68 29.0394Z" fill="#54AFAA"/>
<path d="M34.2783 92.7732C34.2783 92.7732 48.8799 101.66 78.7799 92.7732" stroke="#EAC3B0" stroke-width="2" stroke-miterlimit="10"/>
<path d="M33.2801 85.54C33.2801 85.54 39.7801 95.16 27.8201 96.2" stroke="#EAC3B0" stroke-miterlimit="10"/>
<path d="M82.1599 85.28C82.1599 85.28 72.7999 94.64 83.9799 96.2" stroke="#EAC3B0" stroke-miterlimit="10"/>
<path d="M24.7 85.54C26.9975 85.54 28.86 83.6775 28.86 81.38C28.86 79.0825 26.9975 77.22 24.7 77.22C22.4025 77.22 20.54 79.0825 20.54 81.38C20.54 83.6775 22.4025 85.54 24.7 85.54Z" fill="#FFA4B8"/>
<path d="M87.0999 85.54C89.3974 85.54 91.2599 83.6775 91.2599 81.38C91.2599 79.0825 89.3974 77.22 87.0999 77.22C84.8024 77.22 82.9399 79.0825 82.9399 81.38C82.9399 83.6775 84.8024 85.54 87.0999 85.54Z" fill="#FFA4B8"/>
</g>
<defs>
<clipPath id="clip0">
<rect width="104" height="130" fill="white"/>
</clipPath>
</defs>
</svg>
