<svg id="Layer_1" data-name="Layer 1" xmlns="http://www.w3.org/2000/svg" viewBox="0 0 53 53"><defs><style>.cls-1{fill:#6cc9c6;}.cls-2{fill:#54afaa;}</style></defs><title>check</title><path class="cls-1" d="M45.3,8.22A26.34,26.34,0,0,0,26.92.36h-.47A26.42,26.42,0,0,0,.51,21.48a26.28,26.28,0,0,0,15.7,29.46,26.53,26.53,0,0,0,32.13-9.5,26.21,26.21,0,0,0-3-33.21Z"/><path class="cls-2" d="M25.11,36a3.19,3.19,0,0,1-1.86-.6L15.72,30a3.17,3.17,0,0,1,1.38-5.7,3.2,3.2,0,0,1,2.37.57l5.08,3.66,8.2-10.17a3.18,3.18,0,1,1,4.93,4L27.59,34.84A3.19,3.19,0,0,1,25.11,36Z"/></svg>