<svg width="282" height="169" viewBox="0 0 282 169" fill="none" xmlns="http://www.w3.org/2000/svg">
<path d="M223.846 131.316C229.051 129.812 232.086 124.796 230.624 120.113C229.162 115.43 223.757 112.853 218.551 114.357C213.346 115.861 210.311 120.877 211.773 125.56C213.235 130.243 218.641 132.82 223.846 131.316Z" fill="white"/>
<path d="M223.846 131.316C229.051 129.812 232.086 124.796 230.624 120.113C229.162 115.43 223.757 112.853 218.551 114.357C213.346 115.861 210.311 120.877 211.773 125.56C213.235 130.243 218.641 132.82 223.846 131.316Z" fill="white"/>
<path d="M223.102 128.905C226.825 127.829 228.994 124.238 227.947 120.884C226.899 117.53 223.033 115.683 219.31 116.759C215.588 117.834 213.419 121.425 214.466 124.779C215.513 128.134 219.38 129.981 223.102 128.905Z" fill="#D0D1D3"/>
<path fill-rule="evenodd" clip-rule="evenodd" d="M155.954 102.059L150.096 103.751L160.616 138.703C163.096 146.104 170.594 148.92 179.11 147.152C185.897 145.742 194.116 142.822 196.654 137.524C198.505 133.661 201.817 111.083 201.971 110.181C202.963 104.36 205.805 103.738 207.772 104.683C210.477 105.983 216.638 119.172 218.323 122.393C218.57 122.764 219.093 122.896 219.534 122.698C220.334 122.343 221.54 121.804 222.35 121.442C222.578 121.34 222.755 121.161 222.842 120.945C222.93 120.729 222.921 120.494 222.817 120.291C221.185 117.077 214.945 104.822 214.096 103.584C212.733 101.599 209.889 99.1033 205.85 99.5393C205.437 99.5839 204.631 99.7196 204.069 99.9093C200.902 100.979 198.266 102.544 197.136 107.695C197.136 107.695 194.413 127.817 192.431 133.928C192.249 134.487 191.046 139.914 178.639 142.216C168.908 144.022 166.791 138.241 166.149 136.699C165.047 134.052 155.954 102.059 155.954 102.059Z" fill="#6CC9C6"/>
<path fill-rule="evenodd" clip-rule="evenodd" d="M101.338 34.6322L99.8525 29.5845C98.2336 30.2206 96.4977 30.7846 95.4155 31.9379C92.7468 34.7818 94.1936 40.0695 95.4113 43.5474C98.9624 53.6898 114.63 92.219 114.63 92.219L119.805 90.6143C119.805 90.6143 103.314 51.3662 100.288 42.2165C99.8072 40.7641 98.4919 37.5056 99.5237 36.0625C99.8819 35.5615 100.571 34.842 101.338 34.6322Z" fill="#D0D1D3"/>
<path fill-rule="evenodd" clip-rule="evenodd" d="M157.992 18.2623L156.331 13.2655C158.241 12.8819 160.218 12.3732 161.937 12.7173C166.174 13.5657 168.017 18.7388 168.979 22.2907C171.784 32.6488 180.387 73.2192 180.387 73.2192L175.222 74.7114C175.222 74.7114 166.276 33.1739 163.58 23.9288C163.151 22.4613 162.415 19.0357 160.568 18.4243C159.927 18.212 158.842 18.005 157.992 18.2623Z" fill="#D0D1D3"/>
<path fill-rule="evenodd" clip-rule="evenodd" d="M179.908 70.9601C179.908 70.9601 179.39 72.4922 177.503 72.9514C175.439 73.4532 174.717 72.3634 174.717 72.3634C174.717 72.3634 174.664 72.3343 174.521 72.4627C174.034 72.8981 174.496 75.4687 173.501 76.3116C168.553 80.5023 158.694 89.032 150.015 91.4976C141.336 93.9633 127.882 92.0002 121.865 90.8794C120.994 90.7173 120.413 89.2419 119.226 88.4414C119.09 88.3499 118.873 88.324 118.853 88.33C118.813 88.3422 118.628 89.489 117.203 90.1799C114.821 91.3353 113.871 90.0668 113.769 90.1048C113.551 90.1855 113.209 90.8905 113.47 91.4028C113.962 92.3694 116.121 96.2113 117.715 96.454C129.095 98.1856 141.31 97.9275 147.058 99.1147C149.07 99.5304 150.417 104.853 150.417 104.853L156.299 103.244C156.299 103.244 154.674 97.8717 156.134 96.492C160.369 92.4926 175.666 82.8361 179.709 78.637C181.438 76.841 180.426 71.563 180.39 71.2976C180.33 70.8517 179.908 70.9601 179.908 70.9601Z" fill="#6CC9C6"/>
<path fill-rule="evenodd" clip-rule="evenodd" d="M157.173 103.207C157.069 102.875 156.685 102.692 156.315 102.798L150.645 104.437C150.468 104.488 150.318 104.6 150.228 104.749C150.138 104.898 150.116 105.071 150.165 105.23C150.298 105.655 150.475 106.222 150.607 106.645C150.709 106.972 151.086 107.152 151.449 107.047C152.784 106.661 155.803 105.789 157.14 105.402C157.504 105.297 157.716 104.947 157.613 104.619L157.173 103.207Z" fill="white"/>
<path fill-rule="evenodd" clip-rule="evenodd" d="M156.444 103.296C156.359 103.025 156.047 102.876 155.746 102.963C154.503 103.322 151.464 104.2 150.102 104.594C149.727 104.702 149.508 105.064 149.613 105.401L150.045 106.782C150.151 107.122 150.542 107.309 150.92 107.2L156.566 105.568C156.864 105.482 157.037 105.196 156.953 104.928L156.444 103.296Z" fill="#D0D1D3"/>
<path fill-rule="evenodd" clip-rule="evenodd" d="M156.775 104.381C156.801 104.5 157.099 105.085 156.59 105.243C155.637 105.541 151.74 106.65 150.872 106.896C150.827 106.909 150.788 106.938 150.765 106.976C150.742 107.014 150.736 107.058 150.749 107.099L150.749 107.099C150.773 107.175 150.86 107.217 150.945 107.193L157.194 105.387L156.775 104.381Z" fill="white"/>
<path d="M222.303 126.359C224.474 125.732 225.741 123.643 225.133 121.694C224.524 119.745 222.271 118.674 220.099 119.302C217.928 119.929 216.661 122.017 217.27 123.966C217.878 125.915 220.132 126.986 222.303 126.359Z" fill="#6CC9C6"/>
<path d="M222.111 125.765C223.911 125.245 224.961 123.511 224.455 121.892C223.95 120.273 222.081 119.383 220.281 119.903C218.481 120.423 217.431 122.157 217.937 123.775C218.442 125.394 220.311 126.285 222.111 125.765Z" fill="white"/>
<path fill-rule="evenodd" clip-rule="evenodd" d="M99.9299 27.9622L98.9712 28.2392C98.5204 28.3694 98.2575 28.8039 98.3841 29.2094L100.44 35.7947C100.567 36.2004 101.035 36.4235 101.486 36.2933L102.444 36.0163L99.9299 27.9622Z" fill="white"/>
<path fill-rule="evenodd" clip-rule="evenodd" d="M100.599 26.7341L99.7576 26.9771C99.3067 27.1074 99.044 27.5418 99.1706 27.9474C99.7457 29.7895 101.244 34.5898 101.82 36.4318C101.946 36.8374 102.414 37.0606 102.865 36.9303L103.41 36.773L100.599 26.7341Z" fill="#E7E8E9"/>
<path fill-rule="evenodd" clip-rule="evenodd" d="M155.653 12.0318L156.401 11.8156C156.852 11.6854 157.32 11.9086 157.446 12.3141C157.923 13.8408 159.016 17.342 159.493 18.8686C159.619 19.2742 159.357 19.7087 158.906 19.8389C158.526 19.9486 158.158 20.055 158.158 20.055L155.653 12.0318Z" fill="white"/>
<path fill-rule="evenodd" clip-rule="evenodd" d="M157.54 21.1432L154.242 11.2453L155.046 11.0128C155.497 10.8826 155.965 11.1056 156.092 11.5113L158.741 19.9957C158.802 20.1905 158.774 20.4021 158.664 20.5841C158.554 20.7661 158.37 20.9034 158.154 20.9659L157.54 21.1432Z" fill="#E7E8E9"/>
<path fill-rule="evenodd" clip-rule="evenodd" d="M106.146 30.4362C105.028 27.5295 101.85 25.9917 100.329 26.861C99.9587 27.072 99.7819 27.4779 99.8981 27.8499C100.368 29.3605 101.962 34.4652 102.491 36.1581C102.57 36.4123 102.778 36.6131 103.051 36.7002C103.325 36.7875 103.633 36.7507 103.882 36.6012C105.305 35.7159 107.07 32.8351 106.146 30.4362Z" fill="#6CC9C6"/>
<path fill-rule="evenodd" clip-rule="evenodd" d="M151.517 17.3266C150.786 14.2536 152.789 11.1908 154.687 11.1787C155.098 11.1772 155.453 11.4182 155.564 11.7741C156.038 13.2904 157.621 18.3621 158.152 20.0631C158.232 20.3173 158.177 20.595 158.004 20.8163C157.831 21.0375 157.558 21.1781 157.265 21.1974C155.494 21.292 152.121 19.8618 151.517 17.3266Z" fill="#6CC9C6"/>
<path fill-rule="evenodd" clip-rule="evenodd" d="M279.629 74.4569C280.747 69.4142 277.075 64.3877 271.428 63.2297L231.773 55.0978C229.059 54.5414 226.244 54.9704 223.946 56.2899C221.648 57.6097 220.055 59.7122 219.519 62.1349L219.026 64.3592C218.488 66.784 219.052 69.3305 220.592 71.4387C222.132 73.5469 224.523 75.044 227.238 75.6008L266.864 83.7267C272.522 84.8873 278.017 81.7315 279.137 76.6784L279.629 74.4569Z" fill="#6CC9C6"/>
<path fill-rule="evenodd" clip-rule="evenodd" d="M279.633 74.4576C280.169 72.036 279.607 69.4927 278.069 67.3872C276.531 65.2818 274.143 63.7865 271.431 63.2304L251.601 59.1639L247.058 79.6653L266.867 83.7274C272.526 84.8878 278.021 81.7322 279.141 76.6792L279.633 74.4576Z" fill="#D0D1D3"/>
<path d="M80.4642 27.7279L63.4141 21.7782L52.6346 50.3665L69.6847 56.3162L80.4642 27.7279Z" fill="#D0D1D3"/>
<path fill-rule="evenodd" clip-rule="evenodd" d="M72.9559 54.4637L51.3363 46.9195L18.3534 134.394C17.5405 136.549 18.8062 138.969 21.1806 139.797L34.1823 144.334C36.5675 145.167 39.1631 144.086 39.9797 141.92L72.9559 54.4637Z" fill="white"/>
<path fill-rule="evenodd" clip-rule="evenodd" d="M35.7578 142.679L21.0789 137.557L20.0224 140.359C19.7977 140.955 20.1476 141.623 20.8041 141.853C23.562 142.815 30.3701 145.191 33.117 146.149C33.7673 146.376 34.4748 146.081 34.6974 145.491L35.7578 142.679Z" fill="white"/>
<path d="M72.9548 54.4634L70.6307 53.6524L38.0418 140.082L40.3658 140.893L72.9548 54.4634Z" fill="#D0D1D3"/>
<path fill-rule="evenodd" clip-rule="evenodd" d="M40.4179 140.76C40.4411 140.699 38.0952 139.946 38.0952 139.946C37.8014 140.713 37.4858 141.469 37.0931 141.937C36.7329 142.366 35.7395 142.753 35.7395 142.753C34.0223 143.625 33.8858 144.211 35.0589 144.558C35.8392 144.68 36.9714 144.885 38.6455 143.701C39.0096 143.443 39.6662 142.752 39.9034 142.125C39.9281 142.06 40.1611 141.441 40.4179 140.76Z" fill="#D0D1D3"/>
<path fill-rule="evenodd" clip-rule="evenodd" d="M35.744 142.75C34.7359 143.126 33.9357 143.004 33.1621 142.867C32.859 143.757 32.5685 144.522 32.3552 145.015C32.1187 145.562 31.6799 145.571 31.4631 145.581L33.125 146.161C33.4375 146.27 33.7796 146.262 34.0758 146.139C34.3724 146.015 34.5991 145.787 34.706 145.503L35.744 142.75Z" fill="#D0D1D3"/>
<path fill-rule="evenodd" clip-rule="evenodd" d="M33.5782 142.946C33.5405 142.94 33.4982 142.934 33.3776 142.911C33.2944 142.895 33.1965 142.879 33.1262 142.857C31.1801 142.257 22.5963 139.194 21.1736 138.686C21.1207 138.667 21.0624 138.668 21.012 138.689C20.9615 138.71 20.9227 138.749 20.9046 138.797C20.8989 138.812 20.893 138.828 20.8873 138.843C20.8694 138.89 20.873 138.943 20.8974 138.989C20.9215 139.036 20.9645 139.072 21.0167 139.09C22.6059 139.645 33.2861 143.372 33.2861 143.372L33.5782 142.946Z" fill="#D0D1D3"/>
<path fill-rule="evenodd" clip-rule="evenodd" d="M30.6763 144.825L23.2496 142.302L21.5274 146.87C21.4819 146.991 21.4803 147.123 21.5228 147.248C21.795 148.045 22.836 151.097 23.1222 151.936C23.1675 152.069 23.2858 152.172 23.4322 152.206C23.6734 152.263 24.0426 152.35 24.2612 152.401C24.3757 152.428 24.4957 152.41 24.591 152.35C25.2058 151.964 27.5503 150.493 28.4917 149.902C28.7484 149.741 28.9405 149.508 29.0415 149.236C29.4766 148.062 30.6763 144.825 30.6763 144.825Z" fill="white"/>
<path fill-rule="evenodd" clip-rule="evenodd" d="M32.3729 144.941C32.282 145.167 31.8856 145.327 31.7694 145.28L23.7807 142.492C23.6723 142.454 23.5542 142.502 23.5148 142.6C23.5143 142.601 23.5138 142.602 23.5133 142.604C23.4942 142.651 23.497 142.705 23.5211 142.752C23.5452 142.799 23.5884 142.836 23.6415 142.854C24.9228 143.302 31.9046 145.738 31.9046 145.738C31.9046 145.738 32.1595 145.498 32.295 145.267C32.382 145.119 32.3735 144.94 32.3729 144.941Z" fill="#D0D1D3"/>
<path d="M24.7288 151.387L23.7646 151.051L19.964 161.13L20.9283 161.466L24.7288 151.387Z" fill="white"/>
<path fill-rule="evenodd" clip-rule="evenodd" d="M30.8422 145.263L30.1175 145.015C30.1175 145.015 28.7919 148.91 28.308 149.396C27.864 149.841 24.993 151.507 24.9323 151.574C24.8164 151.702 24.6123 151.963 24.6064 151.975C24.2527 152.668 24.2927 152.539 24.2927 152.539C24.2927 152.539 24.3716 152.55 24.4426 152.559C24.5144 152.568 24.5867 152.553 24.6457 152.517C25.1635 152.201 27.7324 150.632 28.7378 150.018C29.001 149.858 29.1986 149.622 29.3026 149.346L30.8422 145.263Z" fill="#D0D1D3"/>
<path fill-rule="evenodd" clip-rule="evenodd" d="M24.4384 152.547C24.6432 152.483 24.9303 151.562 24.9224 151.569C24.8508 151.625 24.5212 151.809 24.3298 151.871C24.2196 151.906 24.1686 151.896 24.0529 151.86C23.9672 151.833 23.8921 151.808 23.8199 151.784C23.6866 151.74 23.5436 151.801 23.4989 151.922C23.4892 151.948 23.4789 151.975 23.4692 152.002C23.4475 152.061 23.4523 152.126 23.4829 152.183C23.5135 152.24 23.567 152.285 23.632 152.307C23.8995 152.397 24.2907 152.53 24.2907 152.53C24.2906 152.53 24.4346 152.548 24.4384 152.547Z" fill="#D0D1D3"/>
<path d="M24.3754 152.31L24.064 152.201L20.6092 161.364L20.9206 161.472L24.3754 152.31Z" fill="#D0D1D3"/>
<path fill-rule="evenodd" clip-rule="evenodd" d="M46.0379 115.606C44.7881 113.2 42.5954 116.856 41.3789 116.817C39.736 116.763 41.012 114.758 39.697 114.061C38.4717 113.412 37.7272 114.258 36.9721 114.051C36.233 113.848 35.3626 112.782 33.8157 113.456C31.9513 114.268 31.4935 110.695 30.5109 112.033C30.4571 112.107 24.1106 128.963 21.8838 134.88C21.4628 135.999 22.1195 137.253 23.3508 137.683C25.8063 138.54 29.7845 139.928 32.6327 140.922C34.5229 141.581 36.5817 140.736 37.2481 139.026C39.9431 132.109 46.2105 115.938 46.0379 115.606Z" fill="#6CC9C6"/>
<path d="M65.3849 69.2491L56.2134 66.0487L55.8026 67.1381L64.9742 70.3385L65.3849 69.2491Z" fill="#D0D1D3"/>
<path d="M53.0736 101.9L43.9021 98.6996L43.4913 99.789L52.6629 102.989L53.0736 101.9Z" fill="#D0D1D3"/>
<path d="M40.8982 134.579L31.7267 131.379L31.3159 132.468L40.4875 135.669L40.8982 134.579Z" fill="#D0D1D3"/>
<path d="M46.918 118.226L37.7465 115.025L37.3357 116.115L46.5072 119.315L46.918 118.226Z" fill="#D0D1D3"/>
<path d="M43.8989 126.609L37.9351 124.527L37.6695 125.232L43.6332 127.313L43.8989 126.609Z" fill="#D0D1D3"/>
<path d="M62.3468 77.6825L56.3831 75.6015L56.1174 76.306L62.0812 78.387L62.3468 77.6825Z" fill="#D0D1D3"/>
<path d="M56.2038 93.9744L50.2401 91.8933L49.9744 92.5978L55.9382 94.6789L56.2038 93.9744Z" fill="#D0D1D3"/>
<path d="M50.0609 110.266L44.0971 108.185L43.8315 108.89L49.7952 110.971L50.0609 110.266Z" fill="#D0D1D3"/>
<path d="M59.223 85.5913L50.0515 82.3909L49.6407 83.4803L58.8122 86.6807L59.223 85.5913Z" fill="#D0D1D3"/>
<path fill-rule="evenodd" clip-rule="evenodd" d="M76.3898 59.5622L45.3149 48.7186L44.1748 51.7424C43.958 52.3173 44.0016 52.9566 44.2961 53.5194C44.5906 54.0823 45.1118 54.5227 45.7452 54.7437L72.0005 63.9055C73.3434 64.3741 74.8049 63.7656 75.2646 62.5463L76.3898 59.5622Z" fill="#D0D1D3"/>
<path fill-rule="evenodd" clip-rule="evenodd" d="M74.1025 58.7641L45.3149 48.7186L44.1748 51.7424C43.958 52.3173 44.0016 52.9566 44.2961 53.5194C44.5906 54.0823 45.1118 54.5227 45.7452 54.7437L69.7132 63.1073C70.3583 63.3324 71.0643 63.3158 71.6764 63.0608C72.2886 62.8059 72.7566 62.3336 72.9774 61.7481L74.1025 58.7641Z" fill="white"/>
<path fill-rule="evenodd" clip-rule="evenodd" d="M72.6374 62.3595C72.0695 62.8289 71.4931 63.0644 70.3566 62.7147C70.3566 62.7147 52.2403 56.4456 49.3841 55.4571C49.2944 55.4261 49.1957 55.4348 49.1171 55.4808C49.0385 55.5268 48.989 55.6047 48.9834 55.6913C48.9769 55.7942 49.0457 55.8908 49.1517 55.9278L71.436 63.7039C71.436 63.7039 72.8194 62.2091 72.6374 62.3595Z" fill="#D0D1D3"/>
<path fill-rule="evenodd" clip-rule="evenodd" d="M82.4721 58.169C82.718 57.5169 82.6686 56.7922 82.3348 56.1542C82.0008 55.5159 81.4099 55.0166 80.6919 54.7661L45.2112 42.385C43.7173 41.8637 42.0917 42.5407 41.5803 43.8971L41.3231 44.5792C40.8168 45.922 41.6051 47.4287 43.084 47.9447L78.6087 60.3411C79.3222 60.5901 80.1036 60.5715 80.781 60.2894C81.4584 60.0074 81.976 59.4849 82.2203 58.837L82.4721 58.169Z" fill="#D0D1D3"/>
<path fill-rule="evenodd" clip-rule="evenodd" d="M80.414 57.296C80.6462 56.6801 80.5995 55.9959 80.2842 55.3932C79.9688 54.7905 79.4107 54.319 78.7327 54.0824L45.1458 42.3622C44.4459 42.118 43.6792 42.1361 43.0148 42.413C42.3504 42.6896 41.8424 43.202 41.6027 43.8376L41.594 43.8609C41.3593 44.4832 41.4066 45.175 41.7253 45.7841C42.0439 46.3932 42.608 46.8698 43.2934 47.1089L76.9158 58.8415C77.5991 59.08 78.3474 59.0622 78.9959 58.7919C79.6446 58.5219 80.1404 58.0216 80.3745 57.401L80.414 57.296Z" fill="white"/>
<path fill-rule="evenodd" clip-rule="evenodd" d="M84.0215 27.312C84.0785 27.1609 84.067 26.9929 83.9897 26.8449C83.9123 26.6969 83.7753 26.5811 83.6087 26.523L61.7481 18.8947C61.4251 18.782 61.0734 18.9286 60.9628 19.2219C60.8535 19.5118 60.7182 19.8706 60.6069 20.1658C60.5502 20.3161 60.5616 20.4832 60.6386 20.6304C60.7157 20.7777 60.8519 20.8928 61.0175 20.9505L82.8804 28.5796C83.0358 28.6339 83.206 28.6298 83.3536 28.5684C83.5011 28.5071 83.6139 28.3931 83.6671 28.252C83.7759 27.9633 83.9105 27.6064 84.0215 27.312Z" fill="white"/>
<path fill-rule="evenodd" clip-rule="evenodd" d="M83.1383 27.0038C83.2569 26.6891 83.0722 26.3358 82.7255 26.2148C79.505 25.091 64.8663 19.9828 61.7481 18.8947C61.4251 18.782 61.0734 18.9286 60.9628 19.2219L60.6069 20.1658C60.4888 20.4789 60.6726 20.8302 61.0175 20.9505L81.9971 28.2714C82.3208 28.3844 82.673 28.2377 82.7838 27.9438L83.1383 27.0038Z" fill="#D0D1D3"/>
<path fill-rule="evenodd" clip-rule="evenodd" d="M82.9359 27.5248C82.7332 28.0135 82.4184 28.0146 82.3092 27.9763C76.2396 25.8454 70.2429 23.7234 64.1704 21.6046C64.1161 21.5856 64.0564 21.5872 64.005 21.6092C63.9535 21.631 63.9147 21.6713 63.8969 21.7209C63.8932 21.7314 63.8894 21.7415 63.8857 21.7518C63.8495 21.853 63.9094 21.9649 64.02 22.0035C66.0308 22.7051 82.5762 28.4787 82.5762 28.4787L82.9359 27.5248Z" fill="white"/>
</svg>
